<svg xmlns="http://www.w3.org/2000/svg" width="32" height="32" viewBox="0 0 32 32" fill="none">
  <rect width="32" height="32" rx="6" fill="#1a1a1a"/>
  <g>
    <path d="M16 8C14 6 10 8 10 12C10 14 12 16 16 20C20 16 22 14 22 12C22 8 18 6 16 8Z" fill="url(#flameGradient)" opacity="0.9"/>
    <path d="M16 10C14.5 8.5 11.5 10 11.5 13C11.5 14.5 13 16 16 18.5C19 16 20.5 14.5 20.5 13C20.5 10 17.5 8.5 16 10Z" fill="url(#flameGradient2)" opacity="0.8"/>
    <path d="M16 12C15 11 13 11.5 13 13.5C13 14.5 14 15.5 16 17C18 15.5 19 14.5 19 13.5C19 11.5 17 11 16 12Z" fill="#f97316" opacity="0.9"/>
  </g>
  <defs>
    <linearGradient id="flameGradient" x1="16" y1="8" x2="16" y2="20" gradientUnits="userSpaceOnUse">
      <stop offset="0%" stop-color="#fbbf24"/>
      <stop offset="50%" stop-color="#f97316"/>
      <stop offset="100%" stop-color="#dc2626"/>
    </linearGradient>
    <linearGradient id="flameGradient2" x1="16" y1="10" x2="16" y2="18.5" gradientUnits="userSpaceOnUse">
      <stop offset="0%" stop-color="#fbbf24" stop-opacity="0.9"/>
      <stop offset="100%" stop-color="#f97316" stop-opacity="0.7"/>
    </linearGradient>
  </defs>
</svg>
